<mxfile host="app.diagrams.net" modified="2021-07-05T11:32:56.099Z" agent="5.0 (Windows NT 10.0; Win64; x64) AppleWebKit/537.36 (KHTML, like Gecko) Chrome/88.0.4324.93 Safari/537.36" etag="5eNZRDj7Y6nduL2H0FsH" version="14.8.4" type="github">
  <diagram id="kYQaiPEgmX6nP4_w5R1k" name="第 1 页">
    <mxGraphModel dx="1532" dy="850" grid="1" gridSize="10" guides="1" tooltips="1" connect="1" arrows="1" fold="1" page="1" pageScale="1" pageWidth="827" pageHeight="1169" math="0" shadow="0">
      <root>
        <mxCell id="0" />
        <mxCell id="1" parent="0" />
        <mxCell id="x6wt3tKrnw-KazBPaexr-1" value="CPU&lt;br&gt;中央处理器" style="rounded=1;whiteSpace=wrap;html=1;" vertex="1" parent="1">
          <mxGeometry x="260" y="140" width="290" height="230" as="geometry" />
        </mxCell>
        <mxCell id="x6wt3tKrnw-KazBPaexr-2" value="PMMU&lt;br&gt;分页内存管理单元" style="rounded=0;whiteSpace=wrap;html=1;" vertex="1" parent="1">
          <mxGeometry x="770" y="210" width="120" height="130" as="geometry" />
        </mxCell>
      </root>
    </mxGraphModel>
  </diagram>
</mxfile>
